{
    "asset" : {
        "generator" : "Khronos glTF Blender I/O v1.3.48",
        "version" : "2.0"
    },
    "scene" : 0,
    "scenes" : [
        {
            "name" : "Scene",
            "nodes" : [
                0,
                1,
                2,
                3,
                4,
                5,
                6,
                7,
                8,
                9
            ]
        }
    ],
    "nodes" : [
        {
            "mesh" : 0,
            "name" : "glass"
        },
        {
            "mesh" : 1,
            "name" : "on switch",
            "scale" : [
                1.9193814992904663,
                1.9193814992904663,
                1.9193814992904663
            ],
            "translation" : [
                4.385706424713135,
                1.6448400020599365,
                0
            ]
        },
        {
            "mesh" : 2,
            "name" : "Cube",
            "scale" : [
                0.4007681608200073,
                0.4007681608200073,
                0.4007681608200073
            ],
            "translation" : [
                6.973823070526123,
                0,
                -1.4957951307296753
            ]
        },
        {
            "mesh" : 3,
            "name" : "BezierCurve",
            "translation" : [
                -0.9124292731285095,
                -0.40286505222320557,
                -2.046750783920288
            ]
        },
        {
            "mesh" : 4,
            "name" : "BezierCurve.001",
            "translation" : [
                -1.2024000883102417,
                -0.40286505222320557,
                -2.055537700653076
            ]
        },
        {
            "mesh" : 5,
            "name" : "Cylinder.001"
        },
        {
            "mesh" : 6,
            "name" : "Cylinder.002"
        },
        {
            "mesh" : 7,
            "name" : "on switch.001",
            "scale" : [
                1.9193814992904663,
                1.9193814992904663,
                1.9193814992904663
            ],
            "translation" : [
                4.385706424713135,
                1.6448400020599365,
                0
            ]
        },
        {
            "mesh" : 8,
            "name" : "on switch.002",
            "scale" : [
                1.9193814992904663,
                1.9193814992904663,
                1.9193814992904663
            ],
            "translation" : [
                4.385706424713135,
                1.6448400020599365,
                0
            ]
        },
        {
            "mesh" : 9,
            "name" : "Cylinder.003"
        }
    ],
    "materials" : [
        {
            "doubleSided" : true,
            "emissiveFactor" : [
                0.8656527400016785,
                1,
                0
            ],
            "name" : "Material",
            "pbrMetallicRoughness" : {
                "baseColorFactor" : [
                    0.8000000715255737,
                    0.5940879583358765,
                    0,
                    1
                ],
                "metallicFactor" : 0,
                "roughnessFactor" : 0.5
            }
        },
        {
            "doubleSided" : true,
            "emissiveFactor" : [
                0,
                0,
                0
            ],
            "name" : "TorchTex",
            "pbrMetallicRoughness" : {
                "baseColorTexture" : {
                    "index" : 0,
                    "texCoord" : 0
                },
                "metallicFactor" : 0,
                "roughnessFactor" : 1
            }
        }
    ],
    "meshes" : [
        {
            "name" : "Cylinder.001",
            "primitives" : [
                {
                    "attributes" : {
                        "POSITION" : 0,
                        "NORMAL" : 1,
                        "TEXCOORD_0" : 2
                    },
                    "indices" : 3,
                    "material" : 0
                }
            ]
        },
        {
            "name" : "Cylinder.002",
            "primitives" : [
                {
                    "attributes" : {
                        "POSITION" : 4,
                        "NORMAL" : 5,
                        "TEXCOORD_0" : 6
                    },
                    "indices" : 7,
                    "material" : 1
                }
            ]
        },
        {
            "name" : "Cube",
            "primitives" : [
                {
                    "attributes" : {
                        "POSITION" : 8,
                        "NORMAL" : 9,
                        "TEXCOORD_0" : 10
                    },
                    "indices" : 11,
                    "material" : 1
                }
            ]
        },
        {
            "name" : "BezierCurve",
            "primitives" : [
                {
                    "attributes" : {
                        "POSITION" : 12,
                        "NORMAL" : 13,
                        "TEXCOORD_0" : 14
                    },
                    "indices" : 15,
                    "material" : 1
                }
            ]
        },
        {
            "name" : "BezierCurve.001",
            "primitives" : [
                {
                    "attributes" : {
                        "POSITION" : 16,
                        "NORMAL" : 17,
                        "TEXCOORD_0" : 18
                    },
                    "indices" : 19,
                    "material" : 1
                }
            ]
        },
        {
            "name" : "Cylinder.003",
            "primitives" : [
                {
                    "attributes" : {
                        "POSITION" : 20,
                        "NORMAL" : 21,
                        "TEXCOORD_0" : 22
                    },
                    "indices" : 23,
                    "material" : 1
                }
            ]
        },
        {
            "name" : "Cylinder.004",
            "primitives" : [
                {
                    "attributes" : {
                        "POSITION" : 24,
                        "NORMAL" : 25,
                        "TEXCOORD_0" : 26
                    },
                    "indices" : 27,
                    "material" : 1
                }
            ]
        },
        {
            "name" : "Cylinder.007",
            "primitives" : [
                {
                    "attributes" : {
                        "POSITION" : 28,
                        "NORMAL" : 29,
                        "TEXCOORD_0" : 30
                    },
                    "indices" : 31,
                    "material" : 1
                }
            ]
        },
        {
            "name" : "Cylinder.008",
            "primitives" : [
                {
                    "attributes" : {
                        "POSITION" : 32,
                        "NORMAL" : 33,
                        "TEXCOORD_0" : 34
                    },
                    "indices" : 35,
                    "material" : 1
                }
            ]
        },
        {
            "name" : "Cylinder.009",
            "primitives" : [
                {
                    "attributes" : {
                        "POSITION" : 36,
                        "NORMAL" : 37,
                        "TEXCOORD_0" : 38
                    },
                    "indices" : 39,
                    "material" : 1
                }
            ]
        }
    ],
    "textures" : [
        {
            "source" : 0
        }
    ],
    "images" : [
        {
            "bufferView" : 8,
            "mimeType" : "image/png",
            "name" : "TorchTex"
        }
    ],
    "accessors" : [
        {
            "bufferView" : 0,
            "componentType" : 5126,
            "count" : 64,
            "max" : [
                8.866495132446289,
                1.3519264459609985,
                1.3519259691238403
            ],
            "min" : [
                8.58696460723877,
                -1.3519260883331299,
                -1.3519260883331299
            ],
            "type" : "VEC3"
        },
        {
            "bufferView" : 1,
            "componentType" : 5126,
            "count" : 64,
            "type" : "VEC3"
        },
        {
            "bufferView" : 2,
            "componentType" : 5126,
            "count" : 64,
            "type" : "VEC2"
        },
        {
            "bufferView" : 3,
            "componentType" : 5123,
            "count" : 330,
            "type" : "SCALAR"
        },
        {
            "bufferView" : 4,
            "componentType" : 5126,
            "count" : 220,
            "max" : [
                0.24680876731872559,
                -0.1616978645324707,
                0.20336972177028656
            ],
            "min" : [
                -0.5775620937347412,
                -0.3907218873500824,
                -0.2033698707818985
            ],
            "type" : "VEC3"
        },
        {
            "bufferView" : 5,
            "componentType" : 5126,
            "count" : 220,
            "type" : "VEC3"
        },
        {
            "bufferView" : 6,
            "componentType" : 5126,
            "count" : 220,
            "type" : "VEC2"
        },
        {
            "bufferView" : 7,
            "componentType" : 5123,
            "count" : 552,
            "type" : "SCALAR"
        },
        {
            "bufferView" : 9,
            "componentType" : 5126,
            "count" : 464,
            "max" : [
                0.9348247647285461,
                2.538792133331299,
                1.6022815704345703
            ],
            "min" : [
                -7.4109721183776855,
                0.043318010866642,
                0.19604602456092834
            ],
            "type" : "VEC3"
        },
        {
            "bufferView" : 10,
            "componentType" : 5126,
            "count" : 464,
            "type" : "VEC3"
        },
        {
            "bufferView" : 11,
            "componentType" : 5126,
            "count" : 464,
            "type" : "VEC2"
        },
        {
            "bufferView" : 12,
            "componentType" : 5123,
            "count" : 1320,
            "type" : "SCALAR"
        },
        {
            "bufferView" : 13,
            "componentType" : 5126,
            "count" : 432,
            "max" : [
                8.067819595336914,
                1.9800914525985718,
                0.9876852631568909
            ],
            "min" : [
                5.3707661628723145,
                0.5698364973068237,
                0.14309805631637573
            ],
            "type" : "VEC3"
        },
        {
            "bufferView" : 14,
            "componentType" : 5126,
            "count" : 432,
            "type" : "VEC3"
        },
        {
            "bufferView" : 15,
            "componentType" : 5126,
            "count" : 432,
            "type" : "VEC2"
        },
        {
            "bufferView" : 16,
            "componentType" : 5123,
            "count" : 1728,
            "type" : "SCALAR"
        },
        {
            "bufferView" : 17,
            "componentType" : 5126,
            "count" : 427,
            "max" : [
                8.068944931030273,
                1.710748314857483,
                0.9878597855567932
            ],
            "min" : [
                5.3686604499816895,
                0.588344931602478,
                -0.24450691044330597
            ],
            "type" : "VEC3"
        },
        {
            "bufferView" : 18,
            "componentType" : 5126,
            "count" : 427,
            "type" : "VEC3"
        },
        {
            "bufferView" : 19,
            "componentType" : 5126,
            "count" : 427,
            "type" : "VEC2"
        },
        {
            "bufferView" : 20,
            "componentType" : 5123,
            "count" : 1728,
            "type" : "SCALAR"
        },
        {
            "bufferView" : 21,
            "componentType" : 5126,
            "count" : 222,
            "max" : [
                3.323789596557617,
                0.7381892800331116,
                -0.7071069478988647
            ],
            "min" : [
                2.152778387069702,
                0.38268303871154785,
                -0.9703981280326843
            ],
            "type" : "VEC3"
        },
        {
            "bufferView" : 22,
            "componentType" : 5126,
            "count" : 222,
            "type" : "VEC3"
        },
        {
            "bufferView" : 23,
            "componentType" : 5126,
            "count" : 222,
            "type" : "VEC2"
        },
        {
            "bufferView" : 24,
            "componentType" : 5123,
            "count" : 408,
            "type" : "SCALAR"
        },
        {
            "bufferView" : 25,
            "componentType" : 5126,
            "count" : 1008,
            "max" : [
                6.0149030685424805,
                1.0949562788009644,
                0.764834463596344
            ],
            "min" : [
                5.128870010375977,
                -1.0949562788009644,
                -0.764834463596344
            ],
            "type" : "VEC3"
        },
        {
            "bufferView" : 26,
            "componentType" : 5126,
            "count" : 1008,
            "type" : "VEC3"
        },
        {
            "bufferView" : 27,
            "componentType" : 5126,
            "count" : 1008,
            "type" : "VEC2"
        },
        {
            "bufferView" : 28,
            "componentType" : 5123,
            "count" : 1776,
            "type" : "SCALAR"
        },
        {
            "bufferView" : 29,
            "componentType" : 5126,
            "count" : 302,
            "max" : [
                0.28743767738342285,
                0.42489859461784363,
                0.11710143834352493
            ],
            "min" : [
                -0.23543143272399902,
                -0.2597782015800476,
                -0.11710145324468613
            ],
            "type" : "VEC3"
        },
        {
            "bufferView" : 30,
            "componentType" : 5126,
            "count" : 302,
            "type" : "VEC3"
        },
        {
            "bufferView" : 31,
            "componentType" : 5126,
            "count" : 302,
            "type" : "VEC2"
        },
        {
            "bufferView" : 32,
            "componentType" : 5123,
            "count" : 912,
            "type" : "SCALAR"
        },
        {
            "bufferView" : 33,
            "componentType" : 5126,
            "count" : 288,
            "max" : [
                -0.1748504340648651,
                0.10245343297719955,
                0.15262402594089508
            ],
            "min" : [
                -0.475224107503891,
                -0.2765110731124878,
                -0.1526240110397339
            ],
            "type" : "VEC3"
        },
        {
            "bufferView" : 34,
            "componentType" : 5126,
            "count" : 288,
            "type" : "VEC3"
        },
        {
            "bufferView" : 35,
            "componentType" : 5126,
            "count" : 288,
            "type" : "VEC2"
        },
        {
            "bufferView" : 36,
            "componentType" : 5123,
            "count" : 804,
            "type" : "SCALAR"
        },
        {
            "bufferView" : 37,
            "componentType" : 5126,
            "count" : 1206,
            "max" : [
                8.58696460723877,
                1.55518639087677,
                1.5551860332489014
            ],
            "min" : [
                -6.060470104217529,
                -1.555186152458191,
                -1.5551860332489014
            ],
            "type" : "VEC3"
        },
        {
            "bufferView" : 38,
            "componentType" : 5126,
            "count" : 1206,
            "type" : "VEC3"
        },
        {
            "bufferView" : 39,
            "componentType" : 5126,
            "count" : 1206,
            "type" : "VEC2"
        },
        {
            "bufferView" : 40,
            "componentType" : 5123,
            "count" : 3498,
            "type" : "SCALAR"
        }
    ],
    "bufferViews" : [
        {
            "buffer" : 0,
            "byteLength" : 768,
            "byteOffset" : 0
        },
        {
            "buffer" : 0,
            "byteLength" : 768,
            "byteOffset" : 768
        },
        {
            "buffer" : 0,
            "byteLength" : 512,
            "byteOffset" : 1536
        },
        {
            "buffer" : 0,
            "byteLength" : 660,
            "byteOffset" : 2048
        },
        {
            "buffer" : 0,
            "byteLength" : 2640,
            "byteOffset" : 2708
        },
        {
            "buffer" : 0,
            "byteLength" : 2640,
            "byteOffset" : 5348
        },
        {
            "buffer" : 0,
            "byteLength" : 1760,
            "byteOffset" : 7988
        },
        {
            "buffer" : 0,
            "byteLength" : 1104,
            "byteOffset" : 9748
        },
        {
            "buffer" : 0,
            "byteLength" : 668197,
            "byteOffset" : 10852
        },
        {
            "buffer" : 0,
            "byteLength" : 5568,
            "byteOffset" : 679052
        },
        {
            "buffer" : 0,
            "byteLength" : 5568,
            "byteOffset" : 684620
        },
        {
            "buffer" : 0,
            "byteLength" : 3712,
            "byteOffset" : 690188
        },
        {
            "buffer" : 0,
            "byteLength" : 2640,
            "byteOffset" : 693900
        },
        {
            "buffer" : 0,
            "byteLength" : 5184,
            "byteOffset" : 696540
        },
        {
            "buffer" : 0,
            "byteLength" : 5184,
            "byteOffset" : 701724
        },
        {
            "buffer" : 0,
            "byteLength" : 3456,
            "byteOffset" : 706908
        },
        {
            "buffer" : 0,
            "byteLength" : 3456,
            "byteOffset" : 710364
        },
        {
            "buffer" : 0,
            "byteLength" : 5124,
            "byteOffset" : 713820
        },
        {
            "buffer" : 0,
            "byteLength" : 5124,
            "byteOffset" : 718944
        },
        {
            "buffer" : 0,
            "byteLength" : 3416,
            "byteOffset" : 724068
        },
        {
            "buffer" : 0,
            "byteLength" : 3456,
            "byteOffset" : 727484
        },
        {
            "buffer" : 0,
            "byteLength" : 2664,
            "byteOffset" : 730940
        },
        {
            "buffer" : 0,
            "byteLength" : 2664,
            "byteOffset" : 733604
        },
        {
            "buffer" : 0,
            "byteLength" : 1776,
            "byteOffset" : 736268
        },
        {
            "buffer" : 0,
            "byteLength" : 816,
            "byteOffset" : 738044
        },
        {
            "buffer" : 0,
            "byteLength" : 12096,
            "byteOffset" : 738860
        },
        {
            "buffer" : 0,
            "byteLength" : 12096,
            "byteOffset" : 750956
        },
        {
            "buffer" : 0,
            "byteLength" : 8064,
            "byteOffset" : 763052
        },
        {
            "buffer" : 0,
            "byteLength" : 3552,
            "byteOffset" : 771116
        },
        {
            "buffer" : 0,
            "byteLength" : 3624,
            "byteOffset" : 774668
        },
        {
            "buffer" : 0,
            "byteLength" : 3624,
            "byteOffset" : 778292
        },
        {
            "buffer" : 0,
            "byteLength" : 2416,
            "byteOffset" : 781916
        },
        {
            "buffer" : 0,
            "byteLength" : 1824,
            "byteOffset" : 784332
        },
        {
            "buffer" : 0,
            "byteLength" : 3456,
            "byteOffset" : 786156
        },
        {
            "buffer" : 0,
            "byteLength" : 3456,
            "byteOffset" : 789612
        },
        {
            "buffer" : 0,
            "byteLength" : 2304,
            "byteOffset" : 793068
        },
        {
            "buffer" : 0,
            "byteLength" : 1608,
            "byteOffset" : 795372
        },
        {
            "buffer" : 0,
            "byteLength" : 14472,
            "byteOffset" : 796980
        },
        {
            "buffer" : 0,
            "byteLength" : 14472,
            "byteOffset" : 811452
        },
        {
            "buffer" : 0,
            "byteLength" : 9648,
            "byteOffset" : 825924
        },
        {
            "buffer" : 0,
            "byteLength" : 6996,
            "byteOffset" : 835572
        }
    ],
    "buffers" : [
        {
            "byteLength" : 842568,
            "uri" : "data:application/octet-stream;base64,"
        }
    ]
}
